<?xml version="1.0" standalone="no"?>
<!DOCTYPE svg PUBLIC "-//W3C//DTD SVG 20010904//EN"
 "http://www.w3.org/TR/2001/REC-SVG-20010904/DTD/svg10.dtd">
<svg version="1.0" xmlns="http://www.w3.org/2000/svg"
 width="4253.000000pt" height="581.000000pt" viewBox="0 0 4253.000000 581.000000"
 preserveAspectRatio="xMidYMid meet">
<metadata>
Created by potrace 1.16, written by Peter Selinger 2001-2019
</metadata>
<g transform="translate(0.000000,581.000000) scale(0.100000,-0.100000)"
fill="#000000" stroke="none">
<path d="M28360 5334 c-25 -2 -121 -8 -215 -14 -154 -10 -477 -49 -565 -68
-31 -7 -35 -11 -38 -44 -2 -21 11 -291 27 -600 56 -1011 79 -1527 121 -2603
23 -583 43 -1079 46 -1103 l5 -42 823 0 824 0 6 73 c3 39 11 231 17 424 l12
353 92 0 c332 0 713 114 990 297 438 289 693 712 755 1254 18 149 7 482 -18
614 -53 272 -159 512 -300 685 -368 449 -902 694 -1672 766 -139 12 -755 18
-910 8z m1348 -1929 c132 -31 221 -103 261 -209 39 -105 24 -301 -31 -409 -28
-55 -106 -130 -167 -162 -69 -34 -192 -65 -265 -65 l-59 0 6 198 c4 108 10
302 13 430 l7 232 86 0 c47 0 114 -7 149 -15z"/>
<path d="M37060 5290 c-522 -67 -919 -225 -1260 -501 -437 -354 -685 -819
-761 -1427 -18 -143 -20 -203 -16 -417 6 -276 22 -411 76 -620 191 -747 771
-1273 1626 -1475 281 -66 515 -89 905 -89 418 0 750 30 1010 92 l95 22 7 55
c4 30 14 197 23 370 19 375 34 568 80 1077 19 211 35 394 35 408 l0 25 -653 0
-652 0 32 -256 c30 -243 83 -785 83 -853 l0 -32 -67 6 c-205 18 -386 100 -549
249 -77 69 -146 179 -186 293 -29 84 -30 95 -32 263 -1 199 8 244 77 389 120
250 389 454 717 544 115 32 116 32 350 31 213 -1 248 -4 378 -29 79 -15 146
-24 149 -21 6 6 -126 1666 -144 1807 l-5 47 -107 12 c-317 36 -408 42 -726 45
-290 3 -361 1 -485 -15z"/>
<path d="M1265 5248 c-2 -7 -43 -237 -90 -512 -87 -502 -261 -1377 -354 -1776
-27 -118 -142 -608 -255 -1088 -164 -695 -206 -888 -206 -943 l0 -69 444 0
445 0 10 53 c66 315 100 459 104 447 3 -8 13 -49 23 -90 12 -54 47 -134 123
-282 58 -115 108 -208 112 -208 4 0 58 37 120 83 174 126 265 188 364 247 50
29 107 67 127 83 28 21 39 25 42 15 3 -7 23 -74 46 -148 23 -74 46 -150 51
-167 l11 -33 814 0 c500 0 814 4 814 9 0 6 -16 79 -35 163 -177 760 -506 2198
-555 2423 -127 582 -214 993 -295 1390 l-83 410 -886 3 c-704 2 -887 0 -891
-10z m710 -2973 c42 -115 95 -254 117 -309 21 -54 38 -100 36 -101 -7 -5 -199
-45 -283 -59 -113 -19 -343 -42 -350 -35 -5 6 168 528 232 699 22 58 48 137
57 175 10 39 20 77 23 85 3 8 25 -43 48 -115 23 -71 77 -224 120 -340z"/>
<path d="M4097 5073 c95 -1404 141 -2397 173 -3668 6 -242 13 -464 16 -492 l5
-53 1313 0 1312 0 23 159 c22 161 42 264 104 536 19 83 38 174 42 204 l7 54
-33 -7 c-236 -47 -626 -92 -911 -103 l-158 -6 0 57 c0 32 34 806 75 1722 41
916 75 1692 75 1724 l0 60 -1028 0 -1027 0 12 -187z"/>
<path d="M7197 5073 c95 -1404 141 -2397 173 -3668 6 -242 13 -464 16 -492 l5
-53 1313 0 1312 0 23 159 c22 161 42 264 104 536 19 83 38 174 42 204 l7 54
-33 -7 c-236 -47 -626 -92 -911 -103 l-158 -6 0 57 c0 32 34 806 75 1722 41
916 75 1692 75 1724 l0 60 -1028 0 -1027 0 12 -187z"/>
<path d="M11552 3063 c53 -1209 97 -2199 97 -2200 1 -2 379 -3 840 -3 l839 0
6 93 c3 50 13 306 21 567 27 819 53 1464 105 2560 28 584 50 1089 50 1121 l0
59 -1028 0 -1027 0 97 -2197z"/>
<path d="M13676 5238 c12 -70 95 -1330 134 -2018 27 -479 87 -1683 100 -2010
6 -146 13 -284 16 -307 l5 -43 504 0 503 0 6 133 c3 72 10 402 16 731 5 330
11 601 13 602 1 1 117 -88 257 -198 140 -110 317 -246 394 -302 76 -55 274
-202 440 -325 339 -251 609 -446 831 -599 l150 -103 7 113 c3 62 11 329 18
593 11 471 34 1243 45 1500 18 414 87 1725 105 2005 5 80 10 169 10 198 l0 52
-575 0 c-316 0 -575 -3 -575 -7 0 -5 7 -96 15 -203 9 -107 18 -323 21 -480 l5
-285 -483 488 -483 487 -741 0 -741 0 3 -22z"/>
<path d="M18607 5108 c40 -505 100 -1401 123 -1848 12 -231 67 -1757 75 -2095
3 -121 8 -239 11 -262 l5 -43 559 0 558 0 6 113 c3 61 10 350 16 641 6 292 12
531 14 533 1 2 225 -309 497 -692 272 -382 496 -694 499 -694 3 -1 211 314
464 699 252 386 460 699 462 698 1 -2 8 -271 14 -598 6 -327 13 -619 16 -648
l5 -52 559 0 558 0 6 102 c3 57 10 351 16 653 20 1006 52 1797 130 3199 11
197 20 378 20 402 l0 44 -778 0 -778 0 -39 -92 c-98 -234 -233 -516 -373 -778
-84 -157 -180 -342 -215 -412 -34 -70 -64 -128 -67 -128 -7 0 -25 34 -200 370
-128 244 -321 665 -440 958 l-34 82 -851 0 -851 0 13 -152z"/>
<path d="M23467 5048 c63 -117 215 -397 338 -623 122 -225 326 -617 452 -870
l230 -460 37 -390 c59 -631 63 -686 86 -1225 12 -283 24 -539 26 -567 l5 -53
769 0 768 0 6 73 c3 39 15 254 26 477 28 570 36 695 76 1220 l35 465 194 380
c106 209 231 452 277 540 109 206 628 1230 628 1238 0 4 -247 7 -550 7 l-549
0 -15 -52 c-8 -29 -40 -145 -71 -258 -31 -113 -101 -338 -156 -500 -54 -162
-111 -344 -127 -403 l-28 -109 -103 339 c-57 186 -130 421 -162 523 -32 102
-76 246 -97 320 l-40 135 -1085 3 -1085 2 115 -212z"/>
<path d="M32215 5248 c-2 -7 -43 -237 -90 -512 -71 -412 -256 -1356 -320
-1631 -9 -38 -129 -549 -267 -1135 -138 -586 -253 -1075 -256 -1088 l-4 -22
460 0 461 0 10 53 c66 315 100 459 104 447 3 -8 13 -49 23 -90 12 -54 47 -134
123 -282 58 -115 108 -208 112 -208 4 0 58 37 120 83 174 126 265 188 364 247
50 29 107 67 127 83 28 21 39 25 42 15 3 -7 23 -74 46 -148 23 -74 46 -150 51
-167 l11 -33 814 0 c500 0 814 4 814 9 0 6 -16 79 -35 163 -177 760 -506 2198
-555 2423 -127 582 -214 993 -295 1390 l-83 410 -886 3 c-704 2 -887 0 -891
-10z m710 -2973 c42 -115 95 -254 117 -309 21 -54 38 -100 36 -101 -7 -5 -199
-45 -283 -59 -113 -19 -343 -42 -350 -35 -5 6 168 528 232 699 22 58 48 137
57 175 10 39 20 77 23 85 3 8 25 -43 48 -115 23 -71 77 -224 120 -340z"/>
<path d="M39007 4893 c54 -927 68 -1243 123 -2783 22 -630 43 -1169 46 -1198
l5 -52 1302 2 1301 3 105 468 c57 257 102 470 99 473 -4 3 -75 -8 -160 -25
-84 -16 -171 -32 -193 -36 -66 -9 -542 -35 -654 -35 l-104 0 7 208 c4 114 9
231 12 260 l6 53 192 -6 c105 -4 288 -18 406 -31 118 -13 221 -24 230 -24 13
0 21 32 43 163 15 89 52 272 82 406 30 135 57 265 61 289 l7 44 -99 -6 c-157
-10 -626 -26 -771 -26 l-133 0 0 33 c0 56 30 380 35 385 10 10 417 -19 615
-43 239 -29 350 -39 350 -32 0 3 27 409 60 902 33 493 60 915 60 936 l0 39
-1528 0 -1527 0 22 -367z"/>
</g>
</svg>
