<?xml version="1.0" standalone="no"?>
<!DOCTYPE svg PUBLIC "-//W3C//DTD SVG 20010904//EN"
 "http://www.w3.org/TR/2001/REC-SVG-20010904/DTD/svg10.dtd">
<svg version="1.0" xmlns="http://www.w3.org/2000/svg"
 width="1638.000000pt" height="820.000000pt" viewBox="0 0 1638.000000 820.000000"
 preserveAspectRatio="xMidYMid meet">
<metadata>
Created by potrace 1.16, written by Peter Selinger 2001-2019
</metadata>
<g transform="translate(0.000000,820.000000) scale(0.100000,-0.100000)"
fill="#000000" stroke="none">
<path d="M4410 8086 l0 -114 -87 -6 c-458 -33 -827 -129 -1218 -316 -896 -427
-1558 -1277 -1749 -2246 -27 -135 -56 -345 -56 -401 l0 -33 -140 0 -140 0 0
-25 0 -25 133 0 134 0 6 -212 c9 -316 46 -566 128 -845 305 -1047 1138 -1876
2192 -2179 214 -61 445 -101 705 -119 l92 -7 0 -774 c0 -694 2 -775 16 -781 8
-3 20 -1 25 4 6 6 9 926 9 2461 l0 2452 1618 0 c889 0 3297 0 5350 0 l3732 0
0 25 0 25 -3735 0 -3735 0 0 38 c0 61 -29 267 -56 402 -195 952 -823 1774
-1692 2213 -417 211 -856 324 -1329 344 l-153 6 0 114 0 113 -25 0 -25 0 0
-114z m0 -600 l0 -434 -22 -6 c-13 -3 -38 -6 -57 -6 -57 0 -241 -30 -342 -55
-785 -198 -1395 -808 -1594 -1594 -20 -82 -39 -196 -61 -378 l-5 -43 -490 0
-489 0 0 33 c0 18 7 87 15 152 127 977 679 1819 1524 2324 434 260 971 419
1479 439 l42 2 0 -434z m475 409 c707 -92 1343 -403 1840 -900 450 -450 759
-1037 871 -1650 21 -114 44 -292 44 -337 l0 -38 -470 0 -469 0 -5 33 c-3 17
-8 65 -11 106 -32 382 -224 832 -490 1151 -85 102 -262 271 -361 346 -361 271
-778 420 -1236 441 l-138 6 0 435 0 435 153 -6 c83 -4 206 -13 272 -22z m-475
-1910 l0 -1015 -1015 0 -1015 0 6 58 c46 443 175 783 420 1113 363 488 924
799 1539 852 22 2 46 4 53 5 9 2 12 -207 12 -1013z m342 1000 c475 -55 893
-250 1232 -575 387 -371 611 -839 660 -1377 l6 -63 -1095 0 -1095 0 0 1015 0
1015 83 0 c45 0 139 -7 209 -15z m-2419 -2197 c14 -323 84 -600 222 -883 210
-432 568 -790 1000 -1000 229 -112 487 -188 710 -210 33 -3 79 -8 103 -11 l42
-5 0 -536 0 -535 -97 7 c-123 8 -305 31 -403 49 -1119 216 -2029 1005 -2399
2080 -49 141 -105 362 -125 491 -32 206 -37 255 -43 468 l-6 217 495 0 495 0
6 -132z m2077 -963 l0 -1095 -62 6 c-451 40 -864 209 -1195 488 -475 399 -741
939 -770 1559 l-6 137 1016 0 1017 0 0 -1095z"/>
<path d="M5415 4588 c-2 -7 -43 -237 -90 -512 -87 -502 -261 -1377 -354 -1776
-27 -118 -142 -608 -255 -1088 -164 -695 -206 -888 -206 -943 l0 -69 444 0
445 0 10 53 c66 315 100 459 104 447 3 -8 13 -49 23 -90 12 -54 47 -134 123
-282 58 -115 108 -208 112 -208 4 0 58 37 120 83 174 126 265 188 364 247 50
29 107 67 127 83 28 21 39 25 42 15 3 -7 23 -74 46 -148 23 -74 46 -150 51
-167 l11 -33 814 0 c500 0 814 4 814 9 0 6 -16 79 -35 163 -177 760 -506 2198
-555 2423 -127 582 -214 993 -295 1390 l-83 410 -886 3 c-704 2 -887 0 -891
-10z m710 -2973 c42 -115 95 -254 117 -309 21 -54 38 -100 36 -101 -7 -5 -199
-45 -283 -59 -113 -19 -343 -42 -350 -35 -5 6 168 528 232 699 22 58 48 137
57 175 10 39 20 77 23 85 3 8 25 -43 48 -115 23 -71 77 -224 120 -340z"/>
<path d="M8322 2403 c53 -1209 97 -2199 97 -2200 1 -2 379 -3 840 -3 l839 0 6
93 c3 50 13 306 21 567 27 819 53 1464 105 2560 28 584 50 1089 50 1121 l0 59
-1028 0 -1027 0 97 -2197z"/>
<path d="M10457 4448 c40 -505 100 -1401 123 -1848 12 -231 67 -1757 75 -2095
3 -121 8 -239 11 -262 l5 -43 559 0 558 0 6 113 c3 61 10 350 16 641 6 292 12
531 14 533 1 2 225 -309 497 -692 272 -382 496 -694 499 -694 3 -1 211 314
464 699 252 386 460 699 462 698 1 -2 8 -271 14 -598 6 -327 13 -619 16 -648
l5 -52 559 0 558 0 6 102 c3 57 10 351 16 653 20 1006 52 1797 130 3199 11
197 20 378 20 402 l0 44 -778 0 -778 0 -39 -92 c-98 -234 -233 -516 -373 -778
-84 -157 -180 -342 -215 -412 -34 -70 -64 -128 -67 -128 -7 0 -25 34 -200 370
-128 244 -321 665 -440 958 l-34 82 -851 0 -851 0 13 -152z"/>
</g>
</svg>
